<mxfile host="app.diagrams.net" agent="Mozilla/5.0 (X11; Linux x86_64; rv:135.0) Gecko/20100101 Firefox/135.0" version="26.0.14">
  <diagram id="C5RBs43oDa-KdzZeNtuy" name="Page-1">
    <mxGraphModel dx="1434" dy="833" grid="1" gridSize="10" guides="1" tooltips="1" connect="1" arrows="1" fold="1" page="1" pageScale="1" pageWidth="827" pageHeight="1169" math="0" shadow="0">
      <root>
        <mxCell id="WIyWlLk6GJQsqaUBKTNV-0" />
        <mxCell id="WIyWlLk6GJQsqaUBKTNV-1" parent="WIyWlLk6GJQsqaUBKTNV-0" />
        <mxCell id="aPU1IR1Gpf8o0duNfGmr-35" value="&lt;div&gt;iop:hasProperty&lt;/div&gt;" style="edgeStyle=orthogonalEdgeStyle;rounded=0;orthogonalLoop=1;jettySize=auto;html=1;exitX=0;exitY=1;exitDx=0;exitDy=0;" parent="WIyWlLk6GJQsqaUBKTNV-1" source="aPU1IR1Gpf8o0duNfGmr-0" target="caDP8VfMmgAl3Qm1rqir-0" edge="1">
          <mxGeometry relative="1" as="geometry" />
        </mxCell>
        <mxCell id="aPU1IR1Gpf8o0duNfGmr-37" value="iop:hasMatrix" style="edgeStyle=orthogonalEdgeStyle;rounded=0;orthogonalLoop=1;jettySize=auto;html=1;exitX=0.75;exitY=1;exitDx=0;exitDy=0;" parent="WIyWlLk6GJQsqaUBKTNV-1" source="aPU1IR1Gpf8o0duNfGmr-0" target="caDP8VfMmgAl3Qm1rqir-3" edge="1">
          <mxGeometry relative="1" as="geometry" />
        </mxCell>
        <mxCell id="aPU1IR1Gpf8o0duNfGmr-38" value="iop:hasContextObject" style="edgeStyle=orthogonalEdgeStyle;rounded=0;orthogonalLoop=1;jettySize=auto;html=1;exitX=1;exitY=0.5;exitDx=0;exitDy=0;" parent="WIyWlLk6GJQsqaUBKTNV-1" source="aPU1IR1Gpf8o0duNfGmr-0" target="caDP8VfMmgAl3Qm1rqir-4" edge="1">
          <mxGeometry relative="1" as="geometry" />
        </mxCell>
        <mxCell id="aPU1IR1Gpf8o0duNfGmr-40" value="iop:hasObjectOfInterest" style="edgeStyle=orthogonalEdgeStyle;rounded=0;orthogonalLoop=1;jettySize=auto;html=1;exitX=0.5;exitY=1;exitDx=0;exitDy=0;entryX=1;entryY=0.75;entryDx=0;entryDy=0;" parent="WIyWlLk6GJQsqaUBKTNV-1" source="aPU1IR1Gpf8o0duNfGmr-0" target="caDP8VfMmgAl3Qm1rqir-1" edge="1">
          <mxGeometry relative="1" as="geometry" />
        </mxCell>
        <mxCell id="aPU1IR1Gpf8o0duNfGmr-0" value="iop:Variable" style="rounded=1;whiteSpace=wrap;html=1;" parent="WIyWlLk6GJQsqaUBKTNV-1" vertex="1">
          <mxGeometry x="415" y="120" width="90" height="30" as="geometry" />
        </mxCell>
        <mxCell id="aPU1IR1Gpf8o0duNfGmr-4" value="&lt;div&gt;iop:hasMember&lt;/div&gt;" style="edgeStyle=orthogonalEdgeStyle;rounded=0;orthogonalLoop=1;jettySize=auto;html=1;exitX=1;exitY=0.5;exitDx=0;exitDy=0;" parent="WIyWlLk6GJQsqaUBKTNV-1" source="aPU1IR1Gpf8o0duNfGmr-1" target="aPU1IR1Gpf8o0duNfGmr-0" edge="1">
          <mxGeometry relative="1" as="geometry" />
        </mxCell>
        <mxCell id="aPU1IR1Gpf8o0duNfGmr-1" value="iop:VariableSet" style="rounded=1;whiteSpace=wrap;html=1;" parent="WIyWlLk6GJQsqaUBKTNV-1" vertex="1">
          <mxGeometry x="110" y="120" width="100" height="30" as="geometry" />
        </mxCell>
        <mxCell id="aPU1IR1Gpf8o0duNfGmr-27" style="edgeStyle=orthogonalEdgeStyle;rounded=0;orthogonalLoop=1;jettySize=auto;html=1;exitX=0.5;exitY=0;exitDx=0;exitDy=0;strokeColor=#b85450;endArrow=diamondThin;endFill=0;dashed=1;dashPattern=1 2;startFill=0;fillColor=#f8cecc;" parent="WIyWlLk6GJQsqaUBKTNV-1" source="caDP8VfMmgAl3Qm1rqir-6" target="caDP8VfMmgAl3Qm1rqir-0" edge="1">
          <mxGeometry relative="1" as="geometry" />
        </mxCell>
        <mxCell id="aPU1IR1Gpf8o0duNfGmr-28" style="edgeStyle=orthogonalEdgeStyle;rounded=0;orthogonalLoop=1;jettySize=auto;html=1;exitX=0.5;exitY=0;exitDx=0;exitDy=0;strokeColor=#b85450;endArrow=diamondThin;endFill=0;dashed=1;dashPattern=1 2;startFill=0;entryX=0.5;entryY=1;entryDx=0;entryDy=0;fillColor=#f8cecc;" parent="WIyWlLk6GJQsqaUBKTNV-1" source="caDP8VfMmgAl3Qm1rqir-7" target="caDP8VfMmgAl3Qm1rqir-1" edge="1">
          <mxGeometry relative="1" as="geometry" />
        </mxCell>
        <mxCell id="aPU1IR1Gpf8o0duNfGmr-29" style="edgeStyle=orthogonalEdgeStyle;rounded=0;orthogonalLoop=1;jettySize=auto;html=1;strokeColor=#b85450;endArrow=diamondThin;endFill=0;dashed=1;dashPattern=1 2;startFill=0;fillColor=#f8cecc;exitX=0.5;exitY=0;exitDx=0;exitDy=0;" parent="WIyWlLk6GJQsqaUBKTNV-1" source="caDP8VfMmgAl3Qm1rqir-8" target="caDP8VfMmgAl3Qm1rqir-3" edge="1">
          <mxGeometry relative="1" as="geometry" />
        </mxCell>
        <mxCell id="aPU1IR1Gpf8o0duNfGmr-30" style="edgeStyle=orthogonalEdgeStyle;rounded=0;orthogonalLoop=1;jettySize=auto;html=1;exitX=0.5;exitY=0;exitDx=0;exitDy=0;strokeColor=#b85450;endArrow=diamondThin;endFill=0;dashed=1;dashPattern=1 2;startFill=0;fillColor=#f8cecc;" parent="WIyWlLk6GJQsqaUBKTNV-1" source="caDP8VfMmgAl3Qm1rqir-9" target="caDP8VfMmgAl3Qm1rqir-4" edge="1">
          <mxGeometry relative="1" as="geometry" />
        </mxCell>
        <mxCell id="aPU1IR1Gpf8o0duNfGmr-18" style="edgeStyle=orthogonalEdgeStyle;rounded=0;orthogonalLoop=1;jettySize=auto;html=1;endArrow=diamondThin;endFill=0;strokeColor=#b85450;dashed=1;dashPattern=1 2;startFill=0;fillColor=#f8cecc;" parent="WIyWlLk6GJQsqaUBKTNV-1" source="aPU1IR1Gpf8o0duNfGmr-14" target="aPU1IR1Gpf8o0duNfGmr-0" edge="1">
          <mxGeometry relative="1" as="geometry" />
        </mxCell>
        <mxCell id="caDP8VfMmgAl3Qm1rqir-15" style="edgeStyle=orthogonalEdgeStyle;rounded=0;orthogonalLoop=1;jettySize=auto;html=1;exitX=1;exitY=0.5;exitDx=0;exitDy=0;fillColor=#f8cecc;strokeColor=#b85450;endArrow=diamondThin;endFill=0;dashed=1;dashPattern=1 2;" edge="1" parent="WIyWlLk6GJQsqaUBKTNV-1" source="aPU1IR1Gpf8o0duNfGmr-14" target="caDP8VfMmgAl3Qm1rqir-10">
          <mxGeometry relative="1" as="geometry">
            <Array as="points">
              <mxPoint x="780" y="55" />
              <mxPoint x="780" y="634" />
            </Array>
          </mxGeometry>
        </mxCell>
        <mxCell id="aPU1IR1Gpf8o0duNfGmr-14" value="&quot;Abundance of ASV X in plants&#39; roots of AF001&quot;" style="shape=hexagon;perimeter=hexagonPerimeter2;whiteSpace=wrap;html=1;fixedSize=1;" parent="WIyWlLk6GJQsqaUBKTNV-1" vertex="1">
          <mxGeometry x="320" y="40" width="280" height="30" as="geometry" />
        </mxCell>
        <mxCell id="caDP8VfMmgAl3Qm1rqir-0" value="iop:Property" style="rounded=1;whiteSpace=wrap;html=1;fillColor=#d5e8d4;strokeColor=#82b366;" vertex="1" parent="WIyWlLk6GJQsqaUBKTNV-1">
          <mxGeometry x="90" y="330" width="90" height="30" as="geometry" />
        </mxCell>
        <mxCell id="caDP8VfMmgAl3Qm1rqir-1" value="iop:Entity" style="rounded=1;whiteSpace=wrap;html=1;fillColor=#d5e8d4;strokeColor=#82b366;" vertex="1" parent="WIyWlLk6GJQsqaUBKTNV-1">
          <mxGeometry x="275" y="330" width="90" height="30" as="geometry" />
        </mxCell>
        <mxCell id="caDP8VfMmgAl3Qm1rqir-3" value="iop:Entity" style="rounded=1;whiteSpace=wrap;html=1;fillColor=#d5e8d4;strokeColor=#82b366;" vertex="1" parent="WIyWlLk6GJQsqaUBKTNV-1">
          <mxGeometry x="505" y="330" width="90" height="30" as="geometry" />
        </mxCell>
        <mxCell id="caDP8VfMmgAl3Qm1rqir-4" value="iop:Entity" style="rounded=1;whiteSpace=wrap;html=1;fillColor=#d5e8d4;strokeColor=#82b366;" vertex="1" parent="WIyWlLk6GJQsqaUBKTNV-1">
          <mxGeometry x="635" y="330" width="90" height="30" as="geometry" />
        </mxCell>
        <mxCell id="caDP8VfMmgAl3Qm1rqir-6" value="&quot;Abundance&quot;" style="ellipse;whiteSpace=wrap;html=1;fillColor=#fff2cc;strokeColor=#d6b656;" vertex="1" parent="WIyWlLk6GJQsqaUBKTNV-1">
          <mxGeometry x="75" y="440" width="120" height="35" as="geometry" />
        </mxCell>
        <mxCell id="caDP8VfMmgAl3Qm1rqir-19" style="edgeStyle=orthogonalEdgeStyle;rounded=0;orthogonalLoop=1;jettySize=auto;html=1;exitX=0.5;exitY=1;exitDx=0;exitDy=0;fillColor=#f8cecc;strokeColor=#b85450;dashed=1;dashPattern=1 2;endArrow=diamondThin;endFill=0;" edge="1" parent="WIyWlLk6GJQsqaUBKTNV-1" source="caDP8VfMmgAl3Qm1rqir-7" target="caDP8VfMmgAl3Qm1rqir-18">
          <mxGeometry relative="1" as="geometry" />
        </mxCell>
        <mxCell id="caDP8VfMmgAl3Qm1rqir-7" value="&quot;ASV X&quot;" style="ellipse;whiteSpace=wrap;html=1;fillColor=#fff2cc;strokeColor=#d6b656;" vertex="1" parent="WIyWlLk6GJQsqaUBKTNV-1">
          <mxGeometry x="260" y="440" width="120" height="35" as="geometry" />
        </mxCell>
        <mxCell id="caDP8VfMmgAl3Qm1rqir-16" style="edgeStyle=orthogonalEdgeStyle;rounded=0;orthogonalLoop=1;jettySize=auto;html=1;exitX=0.5;exitY=1;exitDx=0;exitDy=0;fillColor=#f8cecc;strokeColor=#b85450;endArrow=diamondThin;endFill=0;dashed=1;dashPattern=1 2;" edge="1" parent="WIyWlLk6GJQsqaUBKTNV-1" source="caDP8VfMmgAl3Qm1rqir-8" target="caDP8VfMmgAl3Qm1rqir-14">
          <mxGeometry relative="1" as="geometry" />
        </mxCell>
        <mxCell id="caDP8VfMmgAl3Qm1rqir-8" value="plant&#39;s root" style="ellipse;whiteSpace=wrap;html=1;fillColor=#fff2cc;strokeColor=#d6b656;" vertex="1" parent="WIyWlLk6GJQsqaUBKTNV-1">
          <mxGeometry x="490" y="440" width="120" height="40" as="geometry" />
        </mxCell>
        <mxCell id="caDP8VfMmgAl3Qm1rqir-17" style="edgeStyle=orthogonalEdgeStyle;rounded=0;orthogonalLoop=1;jettySize=auto;html=1;exitX=0.5;exitY=1;exitDx=0;exitDy=0;fillColor=#f8cecc;strokeColor=#b85450;endArrow=diamondThin;endFill=0;dashed=1;dashPattern=1 2;" edge="1" parent="WIyWlLk6GJQsqaUBKTNV-1" source="caDP8VfMmgAl3Qm1rqir-9" target="caDP8VfMmgAl3Qm1rqir-13">
          <mxGeometry relative="1" as="geometry" />
        </mxCell>
        <mxCell id="caDP8VfMmgAl3Qm1rqir-9" value="&quot;AF001&quot;" style="ellipse;whiteSpace=wrap;html=1;fillColor=#fff2cc;strokeColor=#d6b656;" vertex="1" parent="WIyWlLk6GJQsqaUBKTNV-1">
          <mxGeometry x="620" y="440" width="120" height="40" as="geometry" />
        </mxCell>
        <mxCell id="caDP8VfMmgAl3Qm1rqir-10" value="sosa:ObservableProperty" style="rounded=1;whiteSpace=wrap;html=1;fillColor=#dae8fc;strokeColor=#6c8ebf;" vertex="1" parent="WIyWlLk6GJQsqaUBKTNV-1">
          <mxGeometry x="660" y="690" width="145" height="30" as="geometry" />
        </mxCell>
        <mxCell id="caDP8VfMmgAl3Qm1rqir-11" style="edgeStyle=orthogonalEdgeStyle;rounded=0;orthogonalLoop=1;jettySize=auto;html=1;exitX=0.5;exitY=1;exitDx=0;exitDy=0;" edge="1" parent="WIyWlLk6GJQsqaUBKTNV-1" source="caDP8VfMmgAl3Qm1rqir-10" target="caDP8VfMmgAl3Qm1rqir-10">
          <mxGeometry relative="1" as="geometry" />
        </mxCell>
        <mxCell id="caDP8VfMmgAl3Qm1rqir-13" value="sosa:FoI" style="rounded=1;whiteSpace=wrap;html=1;fillColor=#dae8fc;strokeColor=#6c8ebf;" vertex="1" parent="WIyWlLk6GJQsqaUBKTNV-1">
          <mxGeometry x="642.5" y="519" width="75" height="30" as="geometry" />
        </mxCell>
        <mxCell id="caDP8VfMmgAl3Qm1rqir-24" style="edgeStyle=orthogonalEdgeStyle;rounded=0;orthogonalLoop=1;jettySize=auto;html=1;exitX=1;exitY=0.5;exitDx=0;exitDy=0;" edge="1" parent="WIyWlLk6GJQsqaUBKTNV-1" source="caDP8VfMmgAl3Qm1rqir-14" target="caDP8VfMmgAl3Qm1rqir-13">
          <mxGeometry relative="1" as="geometry" />
        </mxCell>
        <mxCell id="caDP8VfMmgAl3Qm1rqir-14" value="sosa:Sample" style="rounded=1;whiteSpace=wrap;html=1;fillColor=#dae8fc;strokeColor=#6c8ebf;" vertex="1" parent="WIyWlLk6GJQsqaUBKTNV-1">
          <mxGeometry x="505" y="519" width="90" height="30" as="geometry" />
        </mxCell>
        <mxCell id="caDP8VfMmgAl3Qm1rqir-18" value="ncbitaxon" style="rounded=1;whiteSpace=wrap;html=1;fillColor=#dae8fc;strokeColor=#6c8ebf;" vertex="1" parent="WIyWlLk6GJQsqaUBKTNV-1">
          <mxGeometry x="275" y="519" width="90" height="30" as="geometry" />
        </mxCell>
        <mxCell id="caDP8VfMmgAl3Qm1rqir-21" style="edgeStyle=orthogonalEdgeStyle;rounded=0;orthogonalLoop=1;jettySize=auto;html=1;exitX=0.5;exitY=0;exitDx=0;exitDy=0;" edge="1" parent="WIyWlLk6GJQsqaUBKTNV-1" source="caDP8VfMmgAl3Qm1rqir-20" target="caDP8VfMmgAl3Qm1rqir-14">
          <mxGeometry relative="1" as="geometry" />
        </mxCell>
        <mxCell id="caDP8VfMmgAl3Qm1rqir-22" style="edgeStyle=orthogonalEdgeStyle;rounded=0;orthogonalLoop=1;jettySize=auto;html=1;exitX=1;exitY=0;exitDx=0;exitDy=0;" edge="1" parent="WIyWlLk6GJQsqaUBKTNV-1" source="caDP8VfMmgAl3Qm1rqir-20" target="caDP8VfMmgAl3Qm1rqir-13">
          <mxGeometry relative="1" as="geometry" />
        </mxCell>
        <mxCell id="caDP8VfMmgAl3Qm1rqir-23" style="edgeStyle=orthogonalEdgeStyle;rounded=0;orthogonalLoop=1;jettySize=auto;html=1;exitX=0.75;exitY=1;exitDx=0;exitDy=0;" edge="1" parent="WIyWlLk6GJQsqaUBKTNV-1" source="caDP8VfMmgAl3Qm1rqir-20" target="caDP8VfMmgAl3Qm1rqir-10">
          <mxGeometry relative="1" as="geometry" />
        </mxCell>
        <mxCell id="caDP8VfMmgAl3Qm1rqir-20" value="sosa:Observation" style="rounded=1;whiteSpace=wrap;html=1;fillColor=#dae8fc;strokeColor=#6c8ebf;" vertex="1" parent="WIyWlLk6GJQsqaUBKTNV-1">
          <mxGeometry x="465" y="620" width="145" height="30" as="geometry" />
        </mxCell>
      </root>
    </mxGraphModel>
  </diagram>
</mxfile>
